<?xml version="1.0" encoding="UTF-8" standalone="no"?><svg width="1440" height="1024" viewBox="0 0 1440 1024" fill="none" xmlns="http://www.w3.org/2000/svg">
<rect width="1440" height="1024" fill="url(#paint0_linear_6_136)"/>
<g filter="url(#filter0_d_6_136)">
<path fill-rule="evenodd" clip-rule="evenodd" d="M736 421.5C736 426.827 733.226 431.527 729 434.317V451H762C778.569 451 792 464.431 792 481V489H793.5C800.404 489 806 494.596 806 501.5C806 508.404 800.404 514 793.5 514H792V521C792 537.569 778.569 551 762 551H679C662.431 551 649 537.569 649 521V514H646.5C639.596 514 634 508.404 634 501.5C634 494.596 639.596 489 646.5 489H649V481C649 464.431 662.431 451 679 451H712V434.926C707.218 432.246 704 427.237 704 421.5C704 412.94 711.163 406 720 406C728.837 406 736 412.94 736 421.5ZM701 502.5C701 509.956 694.732 516 687 516C679.268 516 673 509.956 673 502.5C673 495.044 679.268 489 687 489C694.732 489 701 495.044 701 502.5ZM767 502.5C767 509.956 760.732 516 753 516C745.268 516 739 509.956 739 502.5C739 495.044 745.268 489 753 489C760.732 489 767 495.044 767 502.5Z" fill="white"/>
<path d="M609.8 607L622.4 579H627.52L640.16 607H634.72L623.88 581.76H625.96L615.16 607H609.8ZM615.6 600.52L617 596.44H632.12L633.52 600.52H615.6ZM651.89 607.28C650.077 607.28 648.477 606.947 647.09 606.28C645.704 605.587 644.624 604.547 643.85 603.16C643.077 601.747 642.69 599.973 642.69 597.84V585.64H647.69V597.16C647.69 599.08 648.117 600.52 648.97 601.48C649.85 602.413 651.09 602.88 652.69 602.88C653.864 602.88 654.877 602.64 655.73 602.16C656.61 601.68 657.29 600.96 657.77 600C658.277 599.04 658.53 597.853 658.53 596.44V585.64H663.53V607H658.77V601.24L659.61 603C658.89 604.387 657.837 605.453 656.45 606.2C655.064 606.92 653.544 607.28 651.89 607.28ZM678.117 607.28C675.77 607.28 673.957 606.68 672.677 605.48C671.397 604.253 670.757 602.453 670.757 600.08V580.92H675.757V599.96C675.757 600.973 676.01 601.76 676.517 602.32C677.05 602.88 677.784 603.16 678.717 603.16C679.837 603.16 680.77 602.867 681.517 602.28L682.917 605.84C682.33 606.32 681.61 606.68 680.757 606.92C679.904 607.16 679.024 607.28 678.117 607.28ZM667.237 589.8V585.8H681.477V589.8H667.237ZM695.927 607.28C693.74 607.28 691.794 606.813 690.087 605.88C688.38 604.92 687.034 603.613 686.047 601.96C685.06 600.307 684.567 598.427 684.567 596.32C684.567 594.187 685.06 592.307 686.047 590.68C687.034 589.027 688.38 587.733 690.087 586.8C691.794 585.867 693.74 585.4 695.927 585.4C698.14 585.4 700.1 585.867 701.807 586.8C703.54 587.733 704.887 589.013 705.847 590.64C706.834 592.267 707.327 594.16 707.327 596.32C707.327 598.427 706.834 600.307 705.847 601.96C704.887 603.613 703.54 604.92 701.807 605.88C700.1 606.813 698.14 607.28 695.927 607.28ZM695.927 603C697.154 603 698.247 602.733 699.207 602.2C700.167 601.667 700.914 600.893 701.447 599.88C702.007 598.867 702.287 597.68 702.287 596.32C702.287 594.933 702.007 593.747 701.447 592.76C700.914 591.747 700.167 590.973 699.207 590.44C698.247 589.907 697.167 589.64 695.967 589.64C694.74 589.64 693.647 589.907 692.687 590.44C691.754 590.973 691.007 591.747 690.447 592.76C689.887 593.747 689.607 594.933 689.607 596.32C689.607 597.68 689.887 598.867 690.447 599.88C691.007 600.893 691.754 601.667 692.687 602.2C693.647 602.733 694.727 603 695.927 603ZM721.268 607.4C719.081 607.4 716.988 607.093 714.988 606.48C712.988 605.84 711.401 605.027 710.228 604.04L712.028 600C713.148 600.88 714.535 601.613 716.188 602.2C717.841 602.787 719.535 603.08 721.268 603.08C722.735 603.08 723.921 602.92 724.828 602.6C725.735 602.28 726.401 601.853 726.828 601.32C727.255 600.76 727.468 600.133 727.468 599.44C727.468 598.587 727.161 597.907 726.548 597.4C725.935 596.867 725.135 596.453 724.148 596.16C723.188 595.84 722.108 595.547 720.908 595.28C719.735 595.013 718.548 594.707 717.348 594.36C716.175 593.987 715.095 593.52 714.108 592.96C713.148 592.373 712.361 591.6 711.748 590.64C711.135 589.68 710.828 588.453 710.828 586.96C710.828 585.44 711.228 584.053 712.028 582.8C712.855 581.52 714.095 580.507 715.748 579.76C717.428 578.987 719.548 578.6 722.108 578.6C723.788 578.6 725.455 578.813 727.108 579.24C728.761 579.667 730.201 580.28 731.428 581.08L729.788 585.12C728.535 584.373 727.241 583.827 725.908 583.48C724.575 583.107 723.295 582.92 722.068 582.92C720.628 582.92 719.455 583.093 718.548 583.44C717.668 583.787 717.015 584.24 716.588 584.8C716.188 585.36 715.988 586 715.988 586.72C715.988 587.573 716.281 588.267 716.868 588.8C717.481 589.307 718.268 589.707 719.228 590C720.215 590.293 721.308 590.587 722.508 590.88C723.708 591.147 724.895 591.453 726.068 591.8C727.268 592.147 728.348 592.6 729.308 593.16C730.295 593.72 731.081 594.48 731.668 595.44C732.281 596.4 732.588 597.613 732.588 599.08C732.588 600.573 732.175 601.96 731.348 603.24C730.548 604.493 729.308 605.507 727.628 606.28C725.948 607.027 723.828 607.4 721.268 607.4ZM747.304 607.28C744.931 607.28 742.851 606.813 741.064 605.88C739.304 604.92 737.931 603.613 736.944 601.96C735.984 600.307 735.504 598.427 735.504 596.32C735.504 594.187 735.971 592.307 736.904 590.68C737.864 589.027 739.171 587.733 740.824 586.8C742.504 585.867 744.411 585.4 746.544 585.4C748.624 585.4 750.478 585.853 752.104 586.76C753.731 587.667 755.011 588.947 755.944 590.6C756.878 592.253 757.344 594.2 757.344 596.44C757.344 596.653 757.331 596.893 757.304 597.16C757.304 597.427 757.291 597.68 757.264 597.92H739.464V594.6H754.624L752.664 595.64C752.691 594.413 752.438 593.333 751.904 592.4C751.371 591.467 750.638 590.733 749.704 590.2C748.798 589.667 747.744 589.4 746.544 589.4C745.318 589.4 744.238 589.667 743.304 590.2C742.398 590.733 741.678 591.48 741.144 592.44C740.638 593.373 740.384 594.48 740.384 595.76V596.56C740.384 597.84 740.678 598.973 741.264 599.96C741.851 600.947 742.678 601.707 743.744 602.24C744.811 602.773 746.038 603.04 747.424 603.04C748.624 603.04 749.704 602.853 750.664 602.48C751.624 602.107 752.478 601.52 753.224 600.72L755.904 603.8C754.944 604.92 753.731 605.787 752.264 606.4C750.824 606.987 749.171 607.28 747.304 607.28ZM762.147 607V577.32H767.147V607H762.147ZM773.71 607V577.32H778.71V607H773.71ZM786.872 607.28C785.966 607.28 785.192 606.973 784.552 606.36C783.912 605.72 783.592 604.92 783.592 603.96C783.592 602.947 783.912 602.147 784.552 601.56C785.192 600.947 785.966 600.64 786.872 600.64C787.779 600.64 788.552 600.947 789.192 601.56C789.832 602.147 790.152 602.947 790.152 603.96C790.152 604.92 789.832 605.72 789.192 606.36C788.552 606.973 787.779 607.28 786.872 607.28ZM795.038 607V585.64H800.038V607H795.038ZM797.558 582.12C796.624 582.12 795.851 581.827 795.238 581.24C794.651 580.653 794.358 579.947 794.358 579.12C794.358 578.267 794.651 577.56 795.238 577C795.851 576.413 796.624 576.12 797.558 576.12C798.491 576.12 799.251 576.4 799.838 576.96C800.451 577.493 800.758 578.173 800.758 579C800.758 579.88 800.464 580.627 799.878 581.24C799.291 581.827 798.518 582.12 797.558 582.12ZM816.2 607.28C814.014 607.28 812.067 606.813 810.36 605.88C808.654 604.92 807.307 603.613 806.32 601.96C805.334 600.307 804.84 598.427 804.84 596.32C804.84 594.187 805.334 592.307 806.32 590.68C807.307 589.027 808.654 587.733 810.36 586.8C812.067 585.867 814.014 585.4 816.2 585.4C818.414 585.4 820.374 585.867 822.08 586.8C823.814 587.733 825.16 589.013 826.12 590.64C827.107 592.267 827.6 594.16 827.6 596.32C827.6 598.427 827.107 600.307 826.12 601.96C825.16 603.613 823.814 604.92 822.08 605.88C820.374 606.813 818.414 607.28 816.2 607.28ZM816.2 603C817.427 603 818.52 602.733 819.48 602.2C820.44 601.667 821.187 600.893 821.72 599.88C822.28 598.867 822.56 597.68 822.56 596.32C822.56 594.933 822.28 593.747 821.72 592.76C821.187 591.747 820.44 590.973 819.48 590.44C818.52 589.907 817.44 589.64 816.24 589.64C815.014 589.64 813.92 589.907 812.96 590.44C812.027 590.973 811.28 591.747 810.72 592.76C810.16 593.747 809.88 594.933 809.88 596.32C809.88 597.68 810.16 598.867 810.72 599.88C811.28 600.893 812.027 601.667 812.96 602.2C813.92 602.733 815 603 816.2 603Z" fill="white"/>
</g>
<defs>
<filter id="filter0_d_6_136" x="579.8" y="380" width="277.8" height="261.4" filterUnits="userSpaceOnUse" color-interpolation-filters="sRGB">
<feFlood flood-opacity="0" result="BackgroundImageFix"/>
<feColorMatrix in="SourceAlpha" type="matrix" values="0 0 0 0 0 0 0 0 0 0 0 0 0 0 0 0 0 0 127 0" result="hardAlpha"/>
<feOffset dy="4"/>
<feGaussianBlur stdDeviation="15"/>
<feComposite in2="hardAlpha" operator="out"/>
<feColorMatrix type="matrix" values="0 0 0 0 0 0 0 0 0 0 0 0 0 0 0 0 0 0 0.1 0"/>
<feBlend mode="normal" in2="BackgroundImageFix" result="effect1_dropShadow_6_136"/>
<feBlend mode="normal" in="SourceGraphic" in2="effect1_dropShadow_6_136" result="shape"/>
</filter>
<linearGradient id="paint0_linear_6_136" x1="943.5" y1="1091.5" x2="854.374" y2="-28.3196" gradientUnits="userSpaceOnUse">
<stop stop-color="#86F2B1"/>
<stop offset="0.430043" stop-color="#6932EB"/>
<stop offset="1" stop-color="#6C29CA"/>
</linearGradient>
</defs>
</svg>
