<?xml version="1.0" encoding="UTF-8" standalone="no"?><svg width="1029" height="255" viewBox="0 0 1029 255" fill="none" xmlns="http://www.w3.org/2000/svg">
<rect width="1029" height="255" fill="url(#paint0_linear_102_2)"/>
<g filter="url(#filter0_d_102_2)">
<path fill-rule="evenodd" clip-rule="evenodd" d="M403.919 104.2C403.919 106.331 402.806 108.211 401.11 109.327V116H414.349C420.996 116 426.384 121.373 426.384 128V131.2H426.985C429.755 131.2 432 133.439 432 136.2C432 138.961 429.755 141.2 426.985 141.2H426.384V144C426.384 150.627 420.996 156 414.349 156H381.052C374.406 156 369.017 150.627 369.017 144V141.2H368.015C365.245 141.2 363 138.961 363 136.2C363 133.439 365.245 131.2 368.015 131.2H369.017V128C369.017 121.373 374.406 116 381.052 116H394.291V109.571C392.372 108.499 391.081 106.495 391.081 104.2C391.081 100.776 393.955 98 397.5 98C401.045 98 403.919 100.776 403.919 104.2ZM389.878 136.6C389.878 139.582 387.363 142 384.262 142C381.16 142 378.645 139.582 378.645 136.6C378.645 133.618 381.16 131.2 384.262 131.2C387.363 131.2 389.878 133.618 389.878 136.6ZM416.355 136.6C416.355 139.582 413.84 142 410.738 142C407.637 142 405.122 139.582 405.122 136.6C405.122 133.618 407.637 131.2 410.738 131.2C413.84 131.2 416.355 133.618 416.355 136.6Z" fill="white"/>
<path d="M446.8 141.5L459.4 113.5H464.52L477.16 141.5H471.72L460.88 116.26H462.96L452.16 141.5H446.8ZM452.6 135.02L454 130.94H469.12L470.52 135.02H452.6ZM488.89 141.78C487.077 141.78 485.477 141.447 484.09 140.78C482.704 140.087 481.624 139.047 480.85 137.66C480.077 136.247 479.69 134.473 479.69 132.34V120.14H484.69V131.66C484.69 133.58 485.117 135.02 485.97 135.98C486.85 136.913 488.09 137.38 489.69 137.38C490.864 137.38 491.877 137.14 492.73 136.66C493.61 136.18 494.29 135.46 494.77 134.5C495.277 133.54 495.53 132.353 495.53 130.94V120.14H500.53V141.5H495.77V135.74L496.61 137.5C495.89 138.887 494.837 139.953 493.45 140.7C492.064 141.42 490.544 141.78 488.89 141.78ZM515.117 141.78C512.77 141.78 510.957 141.18 509.677 139.98C508.397 138.753 507.757 136.953 507.757 134.58V115.42H512.757V134.46C512.757 135.473 513.01 136.26 513.517 136.82C514.05 137.38 514.784 137.66 515.717 137.66C516.837 137.66 517.77 137.367 518.517 136.78L519.917 140.34C519.33 140.82 518.61 141.18 517.757 141.42C516.904 141.66 516.024 141.78 515.117 141.78ZM504.237 124.3V120.3H518.477V124.3H504.237ZM532.927 141.78C530.74 141.78 528.794 141.313 527.087 140.38C525.38 139.42 524.034 138.113 523.047 136.46C522.06 134.807 521.567 132.927 521.567 130.82C521.567 128.687 522.06 126.807 523.047 125.18C524.034 123.527 525.38 122.233 527.087 121.3C528.794 120.367 530.74 119.9 532.927 119.9C535.14 119.9 537.1 120.367 538.807 121.3C540.54 122.233 541.887 123.513 542.847 125.14C543.834 126.767 544.327 128.66 544.327 130.82C544.327 132.927 543.834 134.807 542.847 136.46C541.887 138.113 540.54 139.42 538.807 140.38C537.1 141.313 535.14 141.78 532.927 141.78ZM532.927 137.5C534.154 137.5 535.247 137.233 536.207 136.7C537.167 136.167 537.914 135.393 538.447 134.38C539.007 133.367 539.287 132.18 539.287 130.82C539.287 129.433 539.007 128.247 538.447 127.26C537.914 126.247 537.167 125.473 536.207 124.94C535.247 124.407 534.167 124.14 532.967 124.14C531.74 124.14 530.647 124.407 529.687 124.94C528.754 125.473 528.007 126.247 527.447 127.26C526.887 128.247 526.607 129.433 526.607 130.82C526.607 132.18 526.887 133.367 527.447 134.38C528.007 135.393 528.754 136.167 529.687 136.7C530.647 137.233 531.727 137.5 532.927 137.5ZM558.268 141.9C556.081 141.9 553.988 141.593 551.988 140.98C549.988 140.34 548.401 139.527 547.228 138.54L549.028 134.5C550.148 135.38 551.535 136.113 553.188 136.7C554.841 137.287 556.535 137.58 558.268 137.58C559.735 137.58 560.921 137.42 561.828 137.1C562.735 136.78 563.401 136.353 563.828 135.82C564.255 135.26 564.468 134.633 564.468 133.94C564.468 133.087 564.161 132.407 563.548 131.9C562.935 131.367 562.135 130.953 561.148 130.66C560.188 130.34 559.108 130.047 557.908 129.78C556.735 129.513 555.548 129.207 554.348 128.86C553.175 128.487 552.095 128.02 551.108 127.46C550.148 126.873 549.361 126.1 548.748 125.14C548.135 124.18 547.828 122.953 547.828 121.46C547.828 119.94 548.228 118.553 549.028 117.3C549.855 116.02 551.095 115.007 552.748 114.26C554.428 113.487 556.548 113.1 559.108 113.1C560.788 113.1 562.455 113.313 564.108 113.74C565.761 114.167 567.201 114.78 568.428 115.58L566.788 119.62C565.535 118.873 564.241 118.327 562.908 117.98C561.575 117.607 560.295 117.42 559.068 117.42C557.628 117.42 556.455 117.593 555.548 117.94C554.668 118.287 554.015 118.74 553.588 119.3C553.188 119.86 552.988 120.5 552.988 121.22C552.988 122.073 553.281 122.767 553.868 123.3C554.481 123.807 555.268 124.207 556.228 124.5C557.215 124.793 558.308 125.087 559.508 125.38C560.708 125.647 561.895 125.953 563.068 126.3C564.268 126.647 565.348 127.1 566.308 127.66C567.295 128.22 568.081 128.98 568.668 129.94C569.281 130.9 569.588 132.113 569.588 133.58C569.588 135.073 569.175 136.46 568.348 137.74C567.548 138.993 566.308 140.007 564.628 140.78C562.948 141.527 560.828 141.9 558.268 141.9ZM584.304 141.78C581.931 141.78 579.851 141.313 578.064 140.38C576.304 139.42 574.931 138.113 573.944 136.46C572.984 134.807 572.504 132.927 572.504 130.82C572.504 128.687 572.971 126.807 573.904 125.18C574.864 123.527 576.171 122.233 577.824 121.3C579.504 120.367 581.411 119.9 583.544 119.9C585.624 119.9 587.478 120.353 589.104 121.26C590.731 122.167 592.011 123.447 592.944 125.1C593.878 126.753 594.344 128.7 594.344 130.94C594.344 131.153 594.331 131.393 594.304 131.66C594.304 131.927 594.291 132.18 594.264 132.42H576.464V129.1H591.624L589.664 130.14C589.691 128.913 589.438 127.833 588.904 126.9C588.371 125.967 587.638 125.233 586.704 124.7C585.798 124.167 584.744 123.9 583.544 123.9C582.318 123.9 581.238 124.167 580.304 124.7C579.398 125.233 578.678 125.98 578.144 126.94C577.638 127.873 577.384 128.98 577.384 130.26V131.06C577.384 132.34 577.678 133.473 578.264 134.46C578.851 135.447 579.678 136.207 580.744 136.74C581.811 137.273 583.038 137.54 584.424 137.54C585.624 137.54 586.704 137.353 587.664 136.98C588.624 136.607 589.478 136.02 590.224 135.22L592.904 138.3C591.944 139.42 590.731 140.287 589.264 140.9C587.824 141.487 586.171 141.78 584.304 141.78ZM599.147 141.5V111.82H604.147V141.5H599.147ZM610.71 141.5V111.82H615.71V141.5H610.71ZM623.872 141.78C622.966 141.78 622.192 141.473 621.552 140.86C620.912 140.22 620.592 139.42 620.592 138.46C620.592 137.447 620.912 136.647 621.552 136.06C622.192 135.447 622.966 135.14 623.872 135.14C624.779 135.14 625.552 135.447 626.192 136.06C626.832 136.647 627.152 137.447 627.152 138.46C627.152 139.42 626.832 140.22 626.192 140.86C625.552 141.473 624.779 141.78 623.872 141.78ZM632.038 141.5V120.14H637.038V141.5H632.038ZM634.558 116.62C633.624 116.62 632.851 116.327 632.238 115.74C631.651 115.153 631.358 114.447 631.358 113.62C631.358 112.767 631.651 112.06 632.238 111.5C632.851 110.913 633.624 110.62 634.558 110.62C635.491 110.62 636.251 110.9 636.838 111.46C637.451 111.993 637.758 112.673 637.758 113.5C637.758 114.38 637.464 115.127 636.878 115.74C636.291 116.327 635.518 116.62 634.558 116.62ZM653.2 141.78C651.014 141.78 649.067 141.313 647.36 140.38C645.654 139.42 644.307 138.113 643.32 136.46C642.334 134.807 641.84 132.927 641.84 130.82C641.84 128.687 642.334 126.807 643.32 125.18C644.307 123.527 645.654 122.233 647.36 121.3C649.067 120.367 651.014 119.9 653.2 119.9C655.414 119.9 657.374 120.367 659.08 121.3C660.814 122.233 662.16 123.513 663.12 125.14C664.107 126.767 664.6 128.66 664.6 130.82C664.6 132.927 664.107 134.807 663.12 136.46C662.16 138.113 660.814 139.42 659.08 140.38C657.374 141.313 655.414 141.78 653.2 141.78ZM653.2 137.5C654.427 137.5 655.52 137.233 656.48 136.7C657.44 136.167 658.187 135.393 658.72 134.38C659.28 133.367 659.56 132.18 659.56 130.82C659.56 129.433 659.28 128.247 658.72 127.26C658.187 126.247 657.44 125.473 656.48 124.94C655.52 124.407 654.44 124.14 653.24 124.14C652.014 124.14 650.92 124.407 649.96 124.94C649.027 125.473 648.28 126.247 647.72 127.26C647.16 128.247 646.88 129.433 646.88 130.82C646.88 132.18 647.16 133.367 647.72 134.38C648.28 135.393 649.027 136.167 649.96 136.7C650.92 137.233 652 137.5 653.2 137.5Z" fill="white"/>
</g>
<defs>
<filter id="filter0_d_102_2" x="333" y="72" width="364" height="118" filterUnits="userSpaceOnUse" color-interpolation-filters="sRGB">
<feFlood flood-opacity="0" result="BackgroundImageFix"/>
<feColorMatrix in="SourceAlpha" type="matrix" values="0 0 0 0 0 0 0 0 0 0 0 0 0 0 0 0 0 0 127 0" result="hardAlpha"/>
<feOffset dy="4"/>
<feGaussianBlur stdDeviation="15"/>
<feComposite in2="hardAlpha" operator="out"/>
<feColorMatrix type="matrix" values="0 0 0 0 0 0 0 0 0 0 0 0 0 0 0 0 0 0 0.1 0"/>
<feBlend mode="normal" in2="BackgroundImageFix" result="effect1_dropShadow_102_2"/>
<feBlend mode="normal" in="SourceGraphic" in2="effect1_dropShadow_102_2" result="shape"/>
</filter>
<linearGradient id="paint0_linear_102_2" x1="674.209" y1="271.809" x2="666.432" y2="-8.60297" gradientUnits="userSpaceOnUse">
<stop stop-color="#86F2B1"/>
<stop offset="0.430043" stop-color="#6932EB"/>
<stop offset="1" stop-color="#6C29CA"/>
</linearGradient>
</defs>
</svg>
